<?xml version="1.0" encoding="UTF-8" standalone="no"?>
<svg
   xmlns:dc="http://purl.org/dc/elements/1.1/"
   xmlns:cc="http://creativecommons.org/ns#"
   xmlns:rdf="http://www.w3.org/1999/02/22-rdf-syntax-ns#"
   xmlns:svg="http://www.w3.org/2000/svg"
   xmlns="http://www.w3.org/2000/svg"
   xmlns:sodipodi="http://sodipodi.sourceforge.net/DTD/sodipodi-0.dtd"
   xmlns:inkscape="http://www.inkscape.org/namespaces/inkscape"
   width="65.825325mm"
   height="65.862679mm"
   viewBox="0 0 65.825325 65.862679"
   version="1.1"
   id="svg8"
   inkscape:version="1.0.2 (e86c870879, 2021-01-15)"
   sodipodi:docname="logo.svg">
  <defs
     id="defs2">
    <inkscape:path-effect
       effect="bspline"
       id="path-effect1819"
       is_visible="true"
       lpeversion="1"
       weight="33.333333"
       steps="2"
       helper_size="0"
       apply_no_weight="true"
       apply_with_weight="true"
       only_selected="false" />
    <inkscape:path-effect
       effect="bspline"
       id="path-effect1815"
       is_visible="true"
       lpeversion="1"
       weight="33.333333"
       steps="2"
       helper_size="0"
       apply_no_weight="true"
       apply_with_weight="true"
       only_selected="false" />
    <inkscape:path-effect
       effect="bspline"
       id="path-effect1811"
       is_visible="true"
       lpeversion="1"
       weight="33.333333"
       steps="2"
       helper_size="0"
       apply_no_weight="true"
       apply_with_weight="true"
       only_selected="false" />
    <inkscape:path-effect
       effect="bspline"
       id="path-effect1807"
       is_visible="true"
       lpeversion="1"
       weight="33.333333"
       steps="2"
       helper_size="0"
       apply_no_weight="true"
       apply_with_weight="true"
       only_selected="false" />
    <inkscape:path-effect
       effect="bspline"
       id="path-effect1803"
       is_visible="true"
       lpeversion="1"
       weight="33.333333"
       steps="2"
       helper_size="0"
       apply_no_weight="true"
       apply_with_weight="true"
       only_selected="false" />
    <inkscape:path-effect
       effect="bspline"
       id="path-effect1799"
       is_visible="true"
       lpeversion="1"
       weight="33.333333"
       steps="2"
       helper_size="0"
       apply_no_weight="true"
       apply_with_weight="true"
       only_selected="false" />
  </defs>
  <sodipodi:namedview
     id="base"
     pagecolor="#ffffff"
     bordercolor="#666666"
     borderopacity="1.0"
     inkscape:pageopacity="0.0"
     inkscape:pageshadow="2"
     inkscape:zoom="1"
     inkscape:cx="207.27069"
     inkscape:cy="142.26566"
     inkscape:document-units="mm"
     inkscape:current-layer="layer1"
     inkscape:document-rotation="0"
     showgrid="false"
     inkscape:window-width="1306"
     inkscape:window-height="688"
     inkscape:window-x="29"
     inkscape:window-y="29"
     inkscape:window-maximized="1"
     fit-margin-top="0"
     fit-margin-left="0"
     fit-margin-right="0"
     fit-margin-bottom="0" />
  <metadata
     id="metadata5">
    <rdf:RDF>
      <cc:Work
         rdf:about="">
        <dc:format>image/svg+xml</dc:format>
        <dc:type
           rdf:resource="http://purl.org/dc/dcmitype/StillImage" />
        <dc:title></dc:title>
      </cc:Work>
    </rdf:RDF>
  </metadata>
  <g
     inkscape:groupmode="layer"
     id="layer2"
     inkscape:label="Layer 2"
     style="display:inline"
     transform="translate(-61.109168,-82.943329)">
    <path
       style="fill:#25b6ea;fill-opacity:1;stroke:none;stroke-width:0;stroke-miterlimit:4;stroke-dasharray:none"
       d="m 90.034486,148.64419 c -6.170623,-0.7982 -12.157291,-3.36915 -16.933748,-7.27213 -1.786081,-1.45946 -4.512882,-4.37664 -5.865744,-6.27528 -2.920484,-4.09866 -4.798676,-8.59331 -5.728512,-13.70874 -0.495141,-2.72397 -0.534075,-7.92691 -0.07975,-10.65759 1.936363,-11.63847 9.589957,-21.198382 20.436522,-25.526769 4.175471,-1.666245 7.420525,-2.265209 12.24593,-2.260322 4.877022,0.0049 8.082496,0.620157 12.465436,2.392449 9.55324,3.862957 16.97625,12.410702 19.46681,22.416432 0.79003,3.17392 0.89813,4.16227 0.89289,8.16411 -0.004,3.22653 -0.0662,4.14602 -0.39837,5.90595 -2.10696,11.16431 -9.70347,20.45014 -20.18061,24.66839 -2.47088,0.99482 -5.2922,1.73614 -7.916819,2.0802 -2.129737,0.27918 -6.516619,0.31744 -8.404032,0.0733 z"
       id="path1859"
       inkscape:export-xdpi="96"
       inkscape:export-ydpi="96" />
  </g>
  <g
     inkscape:label="Layer 1"
     inkscape:groupmode="layer"
     id="layer1"
     style="display:inline"
     transform="translate(-61.109168,-82.943329)">
    <path
       style="fill:#000000;stroke-width:0.352778"
       id="path905"
       d="" />
    <path
       style="fill:none;stroke:#ffffff;stroke-width:1;stroke-linecap:butt;stroke-linejoin:miter;stroke-miterlimit:4;stroke-dasharray:none;stroke-opacity:1"
       d="m 109.15135,101.20559 c 0.099,0.0644 0.29682,0.19311 0.56445,0.39122 0.26762,0.1981 0.60509,0.46559 0.97649,0.82847 0.3714,0.36288 0.78957,0.83558 1.37476,1.54086 0.58519,0.70527 1.34378,1.65031 2.03843,2.62937 0.69465,0.97906 1.32537,1.99209 1.81891,2.84275 0.49355,0.85067 0.84993,1.53894 1.13142,2.11998 0.28149,0.58103 0.48809,1.05478 0.62933,1.41774 0.14123,0.36297 0.21713,0.61513 0.30243,1.0575 0.0853,0.44237 0.18008,1.07495 0.12015,2.05267 -0.0599,0.97772 -0.27379,2.29645 -0.62454,3.58561 -0.35076,1.28916 -0.83804,2.54668 -1.50962,3.70537 -0.67158,1.15869 -1.52745,2.21861 -2.1545,2.85686 -0.62705,0.63826 -1.02536,0.8549 -1.52448,1.01157 -0.49912,0.15666 -1.10211,0.2538 -1.61756,0.24176 -0.51545,-0.012 -0.94493,-0.13313 -1.35657,-0.36927 -0.41163,-0.23614 -0.80537,-0.58747 -1.10585,-0.97993 -0.30047,-0.39246 -0.50754,-0.8261 -0.61015,-1.1819 -0.10261,-0.35581 -0.10061,-0.63372 -0.10382,-1.09565 -0.003,-0.46192 -0.0117,-1.1082 0.16451,-2.57749 0.17616,-1.46929 0.53695,-3.76162 0.7379,-5.60153 0.20096,-1.83991 0.24206,-3.22733 0.28501,-4.65651 0.0429,-1.42919 0.0877,-2.90005 0.1488,-4.55429 0.0611,-1.65425 0.13841,-3.49178 0.17709,-4.41069 0.0387,-0.91891 0.0384,-0.91891 0.13741,-0.85447 z"
       id="path1797"
       inkscape:path-effect="#path-effect1799"
       inkscape:original-d="m 109.05231,101.14115 c 0.19804,0.12894 0.39582,0.25762 0.59333,0.38603 0.33776,0.26776 0.67523,0.53525 1.01244,0.80248 0.41204,0.45282 0.8238,0.93119 1.2353,1.39638 0.75889,0.94534 1.51748,1.89038 2.27582,2.83517 0.631,1.01332 1.26172,2.02634 1.89218,3.03911 0.35666,0.68856 0.71305,1.37683 1.06917,2.06485 0.20688,0.47404 0.41348,0.94779 0.61982,1.42129 0.0762,0.25243 0.15207,0.5046 0.2277,0.7565 0.095,0.63286 0.1898,1.26544 0.2843,1.89776 -0.22709,1.32112 -0.42814,2.64193 -0.6426,3.96249 -0.48704,1.25783 -0.97431,2.51535 -1.46186,3.77262 -0.85564,1.06023 -1.71151,2.12014 -2.56767,3.17982 -0.39806,0.21691 -0.79637,0.43356 -1.19496,0.64994 -0.60126,0.0877 -1.20276,0.19407 -1.80453,0.29071 -0.42923,-0.12084 -0.85871,-0.24194 -1.28846,-0.3633 -0.39349,-0.35107 -0.78723,-0.7024 -1.18123,-1.05399 -0.20682,-0.4334 -0.41389,-0.86704 -0.62122,-1.30095 0.002,-0.27765 0.004,-0.55556 0.006,-0.83374 0.005,-0.64585 -0.0166,-1.29195 -0.0253,-1.93832 0.36106,-2.29216 0.72185,-4.58449 1.08237,-6.87714 0.0414,-1.38721 0.0825,-2.77463 0.1233,-4.16235 0.0451,-1.47065 0.0898,-2.94151 0.13437,-4.41266 0.0776,-1.83734 0.15496,-3.67487 0.23204,-5.5127 z"
       inkscape:export-xdpi="96"
       inkscape:export-ydpi="96" />
    <path
       style="fill:none;stroke:#ffffff;stroke-width:1;stroke-linecap:butt;stroke-linejoin:miter;stroke-miterlimit:4;stroke-dasharray:none;stroke-opacity:1"
       d="m 108.42342,126.54312 c -0.29489,0.60916 -0.59522,1.22954 -0.86552,1.73094 -0.27031,0.5014 -0.51333,0.8895 -0.82721,1.30645 -0.31388,0.41695 -0.70704,0.87252 -1.16481,1.31762 -0.45778,0.4451 -0.98438,0.88462 -1.38017,1.1755 -0.3958,0.29089 -0.66082,0.43314 -1.09579,0.54222 -0.43497,0.10907 -1.04,0.18492 -1.5394,0.20604 -0.49941,0.0211 -0.92334,-0.0152 -1.31682,-0.0538 -0.393474,-0.0387 -0.768819,-0.0808 -1.485311,-0.58134 -0.716492,-0.50058 -1.772894,-1.45985 -2.726375,-2.57585 -0.953482,-1.11599 -1.804012,-2.38878 -2.604709,-3.70909 -0.800697,-1.32031 -1.547548,-2.68091 -2.166085,-3.70566 -0.618536,-1.02475 -1.106798,-1.71001 -1.573232,-2.32171 -0.466433,-0.6117 -0.900251,-1.13673 -1.345805,-1.57597 -0.445555,-0.43924 -0.897483,-0.78608 -1.342889,-1.09503 -0.445407,-0.30895 -0.899717,-0.58948 -1.443584,-0.83675 -0.543866,-0.24726 -1.184979,-0.46592 -1.672573,-0.60542 -0.487594,-0.13949 -0.821625,-0.19976 -1.193397,-0.24825 -0.371771,-0.0485 -0.781249,-0.0852 -1.204016,-0.0855 -0.422766,-3.3e-4 -0.860063,0.0358 -1.32207,0.17454 -0.462007,0.13869 -0.949221,0.37997 -1.436555,0.62131"
       id="path1801"
       inkscape:path-effect="#path-effect1803"
       inkscape:original-d="m 108.42342,126.54312 c -0.28287,0.61498 -0.5949,1.22969 -0.89275,1.84414 -0.24277,0.38839 -0.48579,0.77649 -0.72908,1.16434 -0.37886,0.45097 -0.77766,0.90167 -1.16689,1.35211 -0.52636,0.4398 -1.05296,0.87932 -1.57984,1.31859 -0.26478,0.14253 -0.5298,0.28479 -0.7951,0.42679 -0.60478,0.0761 -1.2098,0.15198 -1.8151,0.22757 -0.39346,-0.0347 -0.8175,-0.0697 -1.22665,-0.10491 -0.377824,-0.042 -0.753156,-0.0842 -1.130132,-0.12671 -1.055918,-0.95896 -2.112394,-1.91815 -3.168989,-2.87762 -0.850296,-1.27257 -1.700823,-2.54536 -2.551633,-3.81843 -0.741305,-1.37264 -1.497404,-2.72816 -2.246506,-4.09263 -0.488016,-0.68502 -0.976278,-1.37028 -1.464815,-2.05582 -0.452253,-0.53131 -0.878171,-1.06287 -1.317652,-1.5947 -0.451686,-0.34659 -0.903615,-0.69343 -1.35582,-1.04055 -0.435679,-0.27551 -0.892932,-0.55128 -1.339797,-0.82732 -0.640874,-0.21841 -1.281988,-0.43707 -1.923381,-0.656 -0.33378,-0.06 -0.667811,-0.12027 -1.002114,-0.1808 -0.409226,-0.0364 -0.818703,-0.0731 -1.22845,-0.11007 -0.436396,0.0284 -0.873038,0.0725 -1.309952,0.10838 -0.486965,0.24155 -0.974178,0.48283 -1.46167,0.72385"
       sodipodi:nodetypes="ccccccccccccccccccccc"
       inkscape:export-xdpi="96"
       inkscape:export-ydpi="96" />
    <path
       style="fill:none;stroke:#ffffff;stroke-width:1;stroke-linecap:butt;stroke-linejoin:miter;stroke-miterlimit:4;stroke-dasharray:none;stroke-opacity:1"
       d="m 99.375411,132.59445 c -0.321253,0.2711 -0.642534,0.54221 -1.168902,0.81495 -0.526369,0.27274 -1.257922,0.54713 -1.809031,0.74523 -0.551109,0.1981 -0.921756,0.3199 -1.382942,0.43051 -0.461186,0.1106 -1.012948,0.20998 -1.619141,0.28125 -0.606193,0.0713 -1.26682,0.11442 -1.975794,0.1188 -0.708974,0.004 -1.466275,-0.03 -2.227356,-0.11098 -0.761082,-0.081 -1.525916,-0.20852 -2.329601,-0.40601 -0.803685,-0.1975 -1.646188,-0.46497 -2.517604,-0.81299 -0.871416,-0.34803 -1.77169,-0.77664 -2.587643,-1.22668 -0.815953,-0.45004 -1.547528,-0.92152 -2.131462,-1.30995 -0.583934,-0.38842 -1.007862,-0.68516 -1.325972,-1.04196 -0.31811,-0.35681 -0.52394,-0.7692 -0.735807,-1.45896 -0.211867,-0.68976 -0.429601,-1.6567 -0.627496,-2.57019 -0.197895,-0.91349 -0.376627,-1.77683 -0.465585,-2.67911 -0.08896,-0.90228 -0.08843,-1.8451 -0.01786,-2.67098 0.07057,-0.82588 0.211214,-1.53473 0.435534,-2.14733 0.22432,-0.61261 0.521074,-1.10999 0.852701,-1.48922 0.331627,-0.37924 0.692384,-0.63078 1.053094,-0.88229"
       id="path1805"
       inkscape:path-effect="#path-effect1807"
       inkscape:original-d="m 99.375411,132.59445 c -0.321013,0.27138 -0.642292,0.5425 -0.963835,0.81335 -0.731318,0.27466 -1.46287,0.54905 -2.194702,0.82318 -0.370401,0.12207 -0.741048,0.24387 -1.111967,0.36541 -0.551511,0.0996 -1.103265,0.19903 -1.655295,0.29815 -0.660392,0.0434 -1.321022,0.0865 -1.98193,0.12943 -0.757068,-0.0341 -1.514369,-0.0685 -2.27195,-0.10321 -0.764604,-0.1273 -1.52944,-0.25485 -2.294557,-0.38268 -0.842269,-0.26721 -1.684771,-0.53468 -2.527557,-0.80242 -0.900046,-0.42837 -1.800322,-0.85698 -2.700882,-1.28587 -0.731338,-0.47123 -1.462908,-0.94272 -2.194759,-1.41447 -0.429847,-0.31392 -0.859943,-0.60184 -1.290309,-0.90316 -0.205642,-0.41244 -0.411538,-0.82479 -0.617704,-1.23758 -0.21748,-0.96672 -0.435213,-1.93366 -0.653217,-2.90088 -0.169674,-0.86144 -0.356512,-1.7231 -0.535164,-2.58504 7.93e-4,-0.94258 0.0013,-1.8854 0.0016,-2.8285 0.140912,-0.7086 0.281554,-1.41745 0.421936,-2.12657 0.324041,-0.50655 0.60502,-1.01334 0.907135,-1.52041 0.361037,-0.25129 0.721794,-0.50283 1.082294,-0.75464"
       inkscape:export-xdpi="96"
       inkscape:export-ydpi="96" />
    <path
       style="fill:none;stroke:#ffffff;stroke-width:1;stroke-linecap:butt;stroke-linejoin:miter;stroke-miterlimit:4;stroke-dasharray:none;stroke-opacity:1"
       d="m 78.088134,129.95918 c -0.349322,0.10466 -0.709394,0.21254 -1.116887,0.19394 -0.407493,-0.0186 -0.885787,-0.16783 -1.343252,-0.45391 -0.457465,-0.28609 -0.903009,-0.71197 -1.323436,-1.18803 -0.420427,-0.47606 -0.816567,-1.00351 -1.178116,-1.73705 -0.361549,-0.73354 -0.688825,-1.67374 -0.933265,-2.5209 -0.24444,-0.84717 -0.405987,-1.60124 -0.518566,-2.52172 -0.112579,-0.92049 -0.176136,-2.00731 -0.179746,-3.00197 -0.0036,-0.99466 0.05276,-1.89708 0.136426,-2.73333 0.08367,-0.83625 0.194645,-1.60625 0.356361,-2.40122 0.161717,-0.79497 0.37257,-1.60862 0.704138,-2.36767 0.331567,-0.75906 0.783015,-1.46025 1.212876,-2.00297 0.429862,-0.54272 0.838063,-0.92687 1.214301,-1.22397 0.376238,-0.2971 0.720433,-0.50711 1.064555,-0.71707"
       id="path1809"
       inkscape:path-effect="#path-effect1811"
       inkscape:original-d="m 78.088134,129.95918 c -0.348752,0.10656 -0.7093,0.21285 -1.064347,0.31888 -0.459211,-0.14617 -0.938379,-0.2926 -1.407967,-0.4393 -0.445296,-0.42563 -0.890839,-0.85151 -1.336656,-1.27766 -0.395441,-0.52567 -0.791131,-1.05346 -1.187093,-1.58059 -0.327025,-0.93997 -0.654299,-1.88017 -0.981845,-2.82065 -0.161287,-0.75384 -0.322837,-1.50791 -0.48465,-2.26226 -0.0633,-1.08659 -0.126852,-2.17341 -0.190675,-3.26051 0.05664,-0.90219 0.113003,-1.80461 0.169108,-2.70732 0.111247,-0.76977 0.222224,-1.53977 0.332939,-2.31005 0.2247,-0.81652 0.423587,-1.63327 0.634984,-2.4503 0.451734,-0.70096 0.903184,-1.40215 1.354378,-2.10363 0.408477,-0.38389 0.816674,-0.76804 1.224613,-1.15245 0.344472,-0.20975 0.688666,-0.41976 1.0326,-0.63003"
       inkscape:export-xdpi="96"
       inkscape:export-ydpi="96" />
    <path
       style="fill:none;stroke:#ffffff;stroke-width:1;stroke-linecap:butt;stroke-linejoin:miter;stroke-miterlimit:4;stroke-dasharray:none;stroke-opacity:1"
       d="m 109.15135,101.20559 c -0.44164,-0.48032 -0.88147,-0.95868 -1.38845,-1.438707 -0.50698,-0.480028 -1.08008,-0.960546 -1.73411,-1.459923 -0.65403,-0.499377 -1.38914,-1.017686 -2.16879,-1.453322 -0.77964,-0.435635 -1.6076,-0.790159 -2.39441,-1.077982 -0.7868,-0.287822 -1.540184,-0.511441 -2.293651,-0.689891 -0.753468,-0.17845 -1.509917,-0.312557 -2.319022,-0.415053 -0.809104,-0.102496 -1.707938,-0.176398 -2.577712,-0.156416 -0.869774,0.01998 -1.754189,0.135673 -2.606174,0.296993 -0.851984,0.16132 -1.684067,0.369926 -2.476787,0.655085 -0.792721,0.285159 -1.545952,0.646858 -2.299311,1.008617"
       id="path1813"
       inkscape:path-effect="#path-effect1815"
       inkscape:original-d="m 109.15135,101.20559 c -0.44284,-0.47922 -0.88146,-0.95869 -1.32259,-1.438437 -0.57286,-0.480271 -1.14596,-0.960789 -1.71933,-1.441579 -0.73479,-0.517814 -1.46982,-1.036249 -2.20513,-1.554771 -0.82365,-0.353473 -1.65196,-0.707195 -2.47833,-1.061189 -0.75019,-0.21165 -1.500614,-0.44523 -2.251319,-0.668239 -0.756217,-0.13385 -1.512666,-0.267957 -2.269395,-0.402331 -0.861338,-0.07211 -1.760297,-0.144489 -2.640841,-0.21713 -0.858729,0.11431 -1.74336,0.228351 -2.615438,0.342127 -0.831852,0.208881 -1.663935,0.417486 -2.496301,0.625832 -0.752999,0.36198 -1.506231,0.723678 -2.259743,1.085118"
       inkscape:export-xdpi="96"
       inkscape:export-ydpi="96" />
    <path
       style="fill:none;stroke:#ffffff;stroke-width:1;stroke-linecap:butt;stroke-linejoin:miter;stroke-miterlimit:4;stroke-dasharray:none;stroke-opacity:1"
       d="m 81.843211,110.95881 c 0.107568,-5e-4 0.322444,-0.001 0.513186,0.007 0.190742,0.009 0.358458,0.0272 0.522505,0.0758 0.164048,0.0485 0.324964,0.12696 0.481335,0.23934 0.156371,0.11238 0.308243,0.25859 0.385724,0.40718 0.07748,0.14859 0.08083,0.29954 -0.06196,0.60692 -0.142791,0.30739 -0.434556,0.77605 -0.686315,1.12891 -0.251758,0.35287 -0.464972,0.5923 -0.630689,0.73832 -0.165717,0.14602 -0.284099,0.1987 -0.412152,0.22507 -0.128053,0.0264 -0.265922,0.0264 -0.402701,0.003 -0.136778,-0.0237 -0.280726,-0.074 -0.446427,-0.20787 -0.165701,-0.13387 -0.35717,-0.35288 -0.528621,-0.55399 -0.171451,-0.2011 -0.322862,-0.38428 -0.433727,-0.60167 -0.110864,-0.21739 -0.182273,-0.47349 -0.215723,-0.70679 -0.03345,-0.23331 -0.02939,-0.45067 0.0722,-0.65458 0.101584,-0.2039 0.300711,-0.39639 0.46385,-0.51409 0.16314,-0.11771 0.290137,-0.16058 0.496182,-0.18013 0.206045,-0.0196 0.491031,-0.0159 0.63339,-0.014 0.142359,0.002 0.142376,0.002 0.249944,0.002 z"
       id="path1817"
       inkscape:path-effect="#path-effect1819"
       inkscape:original-d="m 81.735643,110.95931 c 0.215138,-5.3e-4 0.430012,-0.002 0.64462,-0.003 0.167421,0.0135 0.334566,0.0372 0.501452,0.0554 0.161184,0.0787 0.322096,0.15715 0.482746,0.23532 0.152143,0.14648 0.304014,0.29269 0.455625,0.43864 0.0036,0.15122 0.007,0.30217 0.01005,0.45285 -0.290062,0.46339 -0.580382,0.93295 -0.870968,1.39903 -0.212958,0.23971 -0.426173,0.47914 -0.639657,0.71831 -0.118105,0.0529 -0.236471,0.10562 -0.355105,0.15804 -0.137613,2.6e-4 -0.275482,2.6e-4 -0.413621,0 -0.135609,-0.0468 -0.279426,-0.0975 -0.419539,-0.14668 -0.191211,-0.21875 -0.38268,-0.43776 -0.574418,-0.65704 -0.151154,-0.18293 -0.302567,-0.36611 -0.45425,-0.54957 -0.07052,-0.25118 -0.141303,-0.50745 -0.212352,-0.76157 0.0043,-0.21243 0.0083,-0.4298 0.01206,-0.6451 0.199401,-0.19224 0.398529,-0.38473 0.597397,-0.57749 0.12726,-0.0426 0.254247,-0.0855 0.380974,-0.1286 0.285261,0.004 0.570243,0.008 0.854969,0.0111 z"
       inkscape:export-xdpi="96"
       inkscape:export-ydpi="96" />
    <path
       style="fill:none;stroke:#ffffff;stroke-width:1;stroke-linecap:butt;stroke-linejoin:miter;stroke-miterlimit:4;stroke-dasharray:none;stroke-opacity:1"
       d="m 86.892931,96.474991 h -5.78593 l -7.049825,6.556509 2.126345,4.25181 1.512459,2.97082 24.04006,1.1492 6.91727,-6.93052 -7.47844,-8.191796 z"
       id="path1839"
       inkscape:export-xdpi="96"
       inkscape:export-ydpi="96" />
    <path
       style="fill:none;stroke:#ffffff;stroke-width:1;stroke-linecap:butt;stroke-linejoin:miter;stroke-miterlimit:4;stroke-dasharray:none;stroke-opacity:1"
       d="M 81.107001,96.474991 89.309648,110.51573 96.87912,103.44502 91.977324,96.743876 77.69598,110.25413"
       id="path1841"
       sodipodi:nodetypes="ccccc"
       inkscape:export-xdpi="96"
       inkscape:export-ydpi="96" />
    <path
       style="fill:none;stroke:#ffffff;stroke-width:1;stroke-linecap:butt;stroke-linejoin:miter;stroke-miterlimit:4;stroke-dasharray:none;stroke-opacity:1"
       d="M 96.879118,103.44502 85.025036,103.2497"
       id="path1843"
       inkscape:export-xdpi="96"
       inkscape:export-ydpi="96" />
  </g>
</svg>
